<mxfile host="app.diagrams.net" agent="Mozilla/5.0 (X11; Linux x86_64; rv:139.0) Gecko/20100101 Firefox/139.0" version="27.0.6">
  <diagram name="Page-1" id="Vy9dcZTcigtyyk6QfVFo">
    <mxGraphModel dx="1426" dy="835" grid="1" gridSize="10" guides="1" tooltips="1" connect="1" arrows="1" fold="1" page="1" pageScale="1" pageWidth="827" pageHeight="1169" math="0" shadow="0">
      <root>
        <mxCell id="0" />
        <mxCell id="1" parent="0" />
        <mxCell id="Zop6etKtP2Gz7wqvCrPE-1" value="Client" style="shape=umlActor;verticalLabelPosition=bottom;verticalAlign=top;html=1;outlineConnect=0;" parent="1" vertex="1">
          <mxGeometry x="30" y="80" width="30" height="60" as="geometry" />
        </mxCell>
        <mxCell id="Zop6etKtP2Gz7wqvCrPE-7" value="Admin" style="shape=umlActor;verticalLabelPosition=bottom;verticalAlign=top;html=1;outlineConnect=0;" parent="1" vertex="1">
          <mxGeometry x="30" y="420" width="30" height="60" as="geometry" />
        </mxCell>
        <mxCell id="Zop6etKtP2Gz7wqvCrPE-10" value="Vendeur" style="shape=umlActor;verticalLabelPosition=bottom;verticalAlign=top;html=1;outlineConnect=0;" parent="1" vertex="1">
          <mxGeometry x="30" y="230" width="30" height="60" as="geometry" />
        </mxCell>
        <mxCell id="Zop6etKtP2Gz7wqvCrPE-30" value="" style="dashed=1;html=1;rounded=0;exitX=0.5;exitY=1;exitDx=0;exitDy=0;entryX=0.291;entryY=0.081;entryDx=0;entryDy=0;entryPerimeter=0;" parent="1" source="Zop6etKtP2Gz7wqvCrPE-16" target="Zop6etKtP2Gz7wqvCrPE-32" edge="1">
          <mxGeometry width="50" height="50" relative="1" as="geometry">
            <mxPoint x="350" y="380" as="sourcePoint" />
            <mxPoint x="350" y="360" as="targetPoint" />
          </mxGeometry>
        </mxCell>
        <mxCell id="Zop6etKtP2Gz7wqvCrPE-31" value="" style="dashed=1;html=1;rounded=0;exitX=0.378;exitY=0.979;exitDx=0;exitDy=0;exitPerimeter=0;entryX=0.584;entryY=0.002;entryDx=0;entryDy=0;entryPerimeter=0;" parent="1" source="Zop6etKtP2Gz7wqvCrPE-26" target="Zop6etKtP2Gz7wqvCrPE-32" edge="1">
          <mxGeometry width="50" height="50" relative="1" as="geometry">
            <mxPoint x="330" y="310" as="sourcePoint" />
            <mxPoint x="390" y="350" as="targetPoint" />
          </mxGeometry>
        </mxCell>
        <mxCell id="Zop6etKtP2Gz7wqvCrPE-32" value="identifier livre" style="ellipse;whiteSpace=wrap;html=1;" parent="1" vertex="1">
          <mxGeometry x="414" y="320" width="70" height="40" as="geometry" />
        </mxCell>
        <mxCell id="Zop6etKtP2Gz7wqvCrPE-33" value="" style="edgeStyle=orthogonalEdgeStyle;rounded=0;orthogonalLoop=1;jettySize=auto;html=1;entryX=0;entryY=0.5;entryDx=0;entryDy=0;endArrow=null;" parent="1" source="Zop6etKtP2Gz7wqvCrPE-1" target="Zop6etKtP2Gz7wqvCrPE-34" edge="1">
          <mxGeometry relative="1" as="geometry">
            <mxPoint x="250" y="529.7" as="sourcePoint" />
            <mxPoint x="330" y="529.7" as="targetPoint" />
          </mxGeometry>
        </mxCell>
        <mxCell id="Zop6etKtP2Gz7wqvCrPE-34" value="Commander un livre" style="ellipse;whiteSpace=wrap;html=1;verticalAlign=top;" parent="1" vertex="1">
          <mxGeometry x="230" y="90" width="80" height="40" as="geometry" />
        </mxCell>
        <mxCell id="Zop6etKtP2Gz7wqvCrPE-39" value="" style="endArrow=null;html=1;rounded=0;exitX=1;exitY=1;exitDx=0;exitDy=0;exitPerimeter=0;entryX=0;entryY=0.5;entryDx=0;entryDy=0;" parent="1" source="Zop6etKtP2Gz7wqvCrPE-1" target="Zop6etKtP2Gz7wqvCrPE-40" edge="1">
          <mxGeometry width="50" height="50" relative="1" as="geometry">
            <mxPoint x="330" y="420" as="sourcePoint" />
            <mxPoint x="320" y="480" as="targetPoint" />
            <Array as="points">
              <mxPoint x="110" y="180" />
            </Array>
          </mxGeometry>
        </mxCell>
        <mxCell id="Zop6etKtP2Gz7wqvCrPE-51" value="&lt;div&gt;SI-Magasin&lt;/div&gt;" style="shape=umlActor;verticalLabelPosition=bottom;verticalAlign=top;html=1;outlineConnect=0;" parent="1" vertex="1">
          <mxGeometry x="760" y="220" width="30" height="60" as="geometry" />
        </mxCell>
        <mxCell id="Zop6etKtP2Gz7wqvCrPE-57" style="edgeStyle=orthogonalEdgeStyle;rounded=0;orthogonalLoop=1;jettySize=auto;html=1;entryX=0.5;entryY=0;entryDx=0;entryDy=0;entryPerimeter=0;endArrow=null;" parent="1" source="Zop6etKtP2Gz7wqvCrPE-54" target="Zop6etKtP2Gz7wqvCrPE-7" edge="1">
          <mxGeometry relative="1" as="geometry">
            <Array as="points">
              <mxPoint x="340" y="420" />
              <mxPoint x="340" y="420" />
            </Array>
          </mxGeometry>
        </mxCell>
        <mxCell id="Zop6etKtP2Gz7wqvCrPE-60" value="" style="endArrow=classic;html=1;rounded=0;exitX=0.5;exitY=0;exitDx=0;exitDy=0;exitPerimeter=0;" parent="1" source="Zop6etKtP2Gz7wqvCrPE-10" target="Zop6etKtP2Gz7wqvCrPE-1" edge="1">
          <mxGeometry width="50" height="50" relative="1" as="geometry">
            <mxPoint x="430" y="340" as="sourcePoint" />
            <mxPoint x="480" y="290" as="targetPoint" />
          </mxGeometry>
        </mxCell>
        <mxCell id="Zop6etKtP2Gz7wqvCrPE-62" value="" style="endArrow=classic;html=1;rounded=0;" parent="1" source="Zop6etKtP2Gz7wqvCrPE-7" target="Zop6etKtP2Gz7wqvCrPE-10" edge="1">
          <mxGeometry width="50" height="50" relative="1" as="geometry">
            <mxPoint x="40" y="420" as="sourcePoint" />
            <mxPoint x="90" y="370" as="targetPoint" />
          </mxGeometry>
        </mxCell>
        <mxCell id="Zop6etKtP2Gz7wqvCrPE-64" value="payement" style="ellipse;whiteSpace=wrap;html=1;" parent="1" vertex="1">
          <mxGeometry x="360" y="90" width="80" height="40" as="geometry" />
        </mxCell>
        <mxCell id="Zop6etKtP2Gz7wqvCrPE-66" value="&lt;div&gt;Banque&lt;/div&gt;" style="shape=umlActor;verticalLabelPosition=bottom;verticalAlign=top;html=1;outlineConnect=0;" parent="1" vertex="1">
          <mxGeometry x="750" y="40" width="30" height="60" as="geometry" />
        </mxCell>
        <mxCell id="Zop6etKtP2Gz7wqvCrPE-67" value="" style="endArrow=none;html=1;rounded=0;exitX=1.018;exitY=0.69;exitDx=0;exitDy=0;exitPerimeter=0;entryX=0;entryY=0.3333333333333333;entryDx=0;entryDy=0;entryPerimeter=0;" parent="1" source="Zop6etKtP2Gz7wqvCrPE-64" target="Zop6etKtP2Gz7wqvCrPE-66" edge="1">
          <mxGeometry width="50" height="50" relative="1" as="geometry">
            <mxPoint x="300" y="330" as="sourcePoint" />
            <mxPoint x="350" y="280" as="targetPoint" />
          </mxGeometry>
        </mxCell>
        <mxCell id="ntPSsKuCJaovOKiAo4H5-2" value="" style="swimlane;startSize=0;" vertex="1" parent="1">
          <mxGeometry x="80" y="20" width="630" height="430" as="geometry" />
        </mxCell>
        <mxCell id="Zop6etKtP2Gz7wqvCrPE-16" value="ajouter un livre" style="ellipse;whiteSpace=wrap;html=1;" parent="ntPSsKuCJaovOKiAo4H5-2" vertex="1">
          <mxGeometry x="254" y="250" width="80" height="40" as="geometry" />
        </mxCell>
        <mxCell id="Zop6etKtP2Gz7wqvCrPE-26" value="retirer un livre" style="ellipse;whiteSpace=wrap;html=1;" parent="ntPSsKuCJaovOKiAo4H5-2" vertex="1">
          <mxGeometry x="365" y="210" width="80" height="40" as="geometry" />
        </mxCell>
        <mxCell id="Zop6etKtP2Gz7wqvCrPE-54" value="consulter statistiques vente" style="ellipse;whiteSpace=wrap;html=1;" parent="ntPSsKuCJaovOKiAo4H5-2" vertex="1">
          <mxGeometry x="440" y="360" width="80" height="50" as="geometry" />
        </mxCell>
        <mxCell id="Zop6etKtP2Gz7wqvCrPE-40" value="Consulter le catalogue" style="ellipse;whiteSpace=wrap;html=1;verticalAlign=top;" parent="ntPSsKuCJaovOKiAo4H5-2" vertex="1">
          <mxGeometry x="110" y="140" width="80" height="40" as="geometry" />
        </mxCell>
        <mxCell id="ntPSsKuCJaovOKiAo4H5-6" value="" style="dashed=1;html=1;rounded=0;entryX=0;entryY=0.5;entryDx=0;entryDy=0;" edge="1" parent="1" source="Zop6etKtP2Gz7wqvCrPE-34" target="Zop6etKtP2Gz7wqvCrPE-64">
          <mxGeometry width="50" height="50" relative="1" as="geometry">
            <mxPoint x="230" y="140" as="sourcePoint" />
            <mxPoint x="460.71067811865476" y="130" as="targetPoint" />
          </mxGeometry>
        </mxCell>
        <mxCell id="ntPSsKuCJaovOKiAo4H5-7" value="" style="endArrow=none;html=1;rounded=0;exitX=1;exitY=0.3333333333333333;exitDx=0;exitDy=0;exitPerimeter=0;entryX=0;entryY=0.5;entryDx=0;entryDy=0;" edge="1" parent="1" source="Zop6etKtP2Gz7wqvCrPE-10" target="Zop6etKtP2Gz7wqvCrPE-26">
          <mxGeometry width="50" height="50" relative="1" as="geometry">
            <mxPoint x="330" y="370" as="sourcePoint" />
            <mxPoint x="430" y="250" as="targetPoint" />
            <Array as="points" />
          </mxGeometry>
        </mxCell>
        <mxCell id="ntPSsKuCJaovOKiAo4H5-8" value="" style="endArrow=none;html=1;rounded=0;entryX=0;entryY=0.5;entryDx=0;entryDy=0;" edge="1" parent="1" source="Zop6etKtP2Gz7wqvCrPE-10" target="Zop6etKtP2Gz7wqvCrPE-16">
          <mxGeometry width="50" height="50" relative="1" as="geometry">
            <mxPoint x="70" y="260" as="sourcePoint" />
            <mxPoint x="440" y="260" as="targetPoint" />
            <Array as="points" />
          </mxGeometry>
        </mxCell>
        <mxCell id="ntPSsKuCJaovOKiAo4H5-9" value="" style="endArrow=none;html=1;rounded=0;entryX=1;entryY=0.5;entryDx=0;entryDy=0;" edge="1" parent="1" source="Zop6etKtP2Gz7wqvCrPE-51" target="Zop6etKtP2Gz7wqvCrPE-26">
          <mxGeometry width="50" height="50" relative="1" as="geometry">
            <mxPoint x="760" y="300" as="sourcePoint" />
            <mxPoint x="410" y="300" as="targetPoint" />
          </mxGeometry>
        </mxCell>
        <mxCell id="ntPSsKuCJaovOKiAo4H5-10" value="" style="endArrow=none;html=1;rounded=0;entryX=1;entryY=0.5;entryDx=0;entryDy=0;" edge="1" parent="1" target="Zop6etKtP2Gz7wqvCrPE-16">
          <mxGeometry width="50" height="50" relative="1" as="geometry">
            <mxPoint x="770" y="260" as="sourcePoint" />
            <mxPoint x="535" y="260" as="targetPoint" />
          </mxGeometry>
        </mxCell>
        <mxCell id="ntPSsKuCJaovOKiAo4H5-11" value="" style="endArrow=none;html=1;rounded=0;entryX=1;entryY=1;entryDx=0;entryDy=0;exitX=0.25;exitY=0.1;exitDx=0;exitDy=0;exitPerimeter=0;" edge="1" parent="1" source="Zop6etKtP2Gz7wqvCrPE-51" target="Zop6etKtP2Gz7wqvCrPE-34">
          <mxGeometry width="50" height="50" relative="1" as="geometry">
            <mxPoint x="780" y="270" as="sourcePoint" />
            <mxPoint x="424" y="300" as="targetPoint" />
          </mxGeometry>
        </mxCell>
      </root>
    </mxGraphModel>
  </diagram>
</mxfile>
